<mxfile host="Electron" agent="Mozilla/5.0 (Windows NT 10.0; Win64; x64) AppleWebKit/537.36 (KHTML, like Gecko) draw.io/25.0.2 Chrome/128.0.6613.186 Electron/32.2.5 Safari/537.36" version="25.0.2">
  <diagram name="Страница — 1" id="F4hhhZ3LYbl8oCwwX-cc">
    <mxGraphModel dx="1702" dy="907" grid="1" gridSize="10" guides="1" tooltips="1" connect="1" arrows="1" fold="1" page="1" pageScale="1" pageWidth="827" pageHeight="1169" math="0" shadow="0">
      <root>
        <mxCell id="0" />
        <mxCell id="1" parent="0" />
        <mxCell id="QLXV31pKg9tyfQpccWn1-1" value="Администратор" style="shape=umlActor;verticalLabelPosition=bottom;verticalAlign=top;html=1;outlineConnect=0;" parent="1" vertex="1">
          <mxGeometry x="170" y="210" width="30" height="60" as="geometry" />
        </mxCell>
        <mxCell id="QLXV31pKg9tyfQpccWn1-2" value="" style="endArrow=classic;html=1;rounded=0;" parent="1" target="QLXV31pKg9tyfQpccWn1-3" edge="1">
          <mxGeometry width="50" height="50" relative="1" as="geometry">
            <mxPoint x="210" y="220" as="sourcePoint" />
            <mxPoint x="260" y="170" as="targetPoint" />
          </mxGeometry>
        </mxCell>
        <mxCell id="QLXV31pKg9tyfQpccWn1-3" value="Добавить специалиста" style="ellipse;whiteSpace=wrap;html=1;" parent="1" vertex="1">
          <mxGeometry x="260" y="140" width="110" height="50" as="geometry" />
        </mxCell>
        <mxCell id="QLXV31pKg9tyfQpccWn1-4" value="" style="endArrow=classic;html=1;rounded=0;" parent="1" target="QLXV31pKg9tyfQpccWn1-5" edge="1">
          <mxGeometry width="50" height="50" relative="1" as="geometry">
            <mxPoint x="220" y="240" as="sourcePoint" />
            <mxPoint x="304" y="230" as="targetPoint" />
          </mxGeometry>
        </mxCell>
        <mxCell id="QLXV31pKg9tyfQpccWn1-5" value="Добавить процедуру" style="ellipse;whiteSpace=wrap;html=1;" parent="1" vertex="1">
          <mxGeometry x="335" y="200" width="110" height="50" as="geometry" />
        </mxCell>
        <mxCell id="QLXV31pKg9tyfQpccWn1-6" value="" style="endArrow=classic;html=1;rounded=0;" parent="1" target="QLXV31pKg9tyfQpccWn1-7" edge="1">
          <mxGeometry width="50" height="50" relative="1" as="geometry">
            <mxPoint x="240" y="260" as="sourcePoint" />
            <mxPoint x="320" y="290" as="targetPoint" />
          </mxGeometry>
        </mxCell>
        <mxCell id="QLXV31pKg9tyfQpccWn1-7" value="Просмотреть базу данных клиентов" style="ellipse;whiteSpace=wrap;html=1;" parent="1" vertex="1">
          <mxGeometry x="320" y="260" width="140" height="50" as="geometry" />
        </mxCell>
        <mxCell id="QLXV31pKg9tyfQpccWn1-8" value="" style="endArrow=classic;html=1;rounded=0;" parent="1" target="QLXV31pKg9tyfQpccWn1-9" edge="1">
          <mxGeometry width="50" height="50" relative="1" as="geometry">
            <mxPoint x="240" y="290" as="sourcePoint" />
            <mxPoint x="320" y="360" as="targetPoint" />
          </mxGeometry>
        </mxCell>
        <mxCell id="QLXV31pKg9tyfQpccWn1-9" value="Создать/удалить&amp;nbsp; акцию, спец. предложение" style="ellipse;whiteSpace=wrap;html=1;" parent="1" vertex="1">
          <mxGeometry x="320" y="330" width="160" height="50" as="geometry" />
        </mxCell>
        <mxCell id="QLXV31pKg9tyfQpccWn1-10" value="" style="endArrow=classic;html=1;rounded=0;" parent="1" target="QLXV31pKg9tyfQpccWn1-11" edge="1">
          <mxGeometry width="50" height="50" relative="1" as="geometry">
            <mxPoint x="190" y="200" as="sourcePoint" />
            <mxPoint x="240" y="110" as="targetPoint" />
          </mxGeometry>
        </mxCell>
        <mxCell id="QLXV31pKg9tyfQpccWn1-11" value="Просмотреть записи" style="ellipse;whiteSpace=wrap;html=1;" parent="1" vertex="1">
          <mxGeometry x="240" y="80" width="110" height="50" as="geometry" />
        </mxCell>
        <mxCell id="QLXV31pKg9tyfQpccWn1-12" value="include" style="html=1;verticalAlign=bottom;endArrow=open;dashed=1;endSize=8;curved=0;rounded=0;entryX=0;entryY=0.5;entryDx=0;entryDy=0;" parent="1" source="QLXV31pKg9tyfQpccWn1-3" target="QLXV31pKg9tyfQpccWn1-13" edge="1">
          <mxGeometry relative="1" as="geometry">
            <mxPoint x="480" y="90" as="sourcePoint" />
            <mxPoint x="430" y="140" as="targetPoint" />
          </mxGeometry>
        </mxCell>
        <mxCell id="QLXV31pKg9tyfQpccWn1-13" value="Добавить фото" style="ellipse;whiteSpace=wrap;html=1;" parent="1" vertex="1">
          <mxGeometry x="510" y="10" width="100" height="50" as="geometry" />
        </mxCell>
        <mxCell id="QLXV31pKg9tyfQpccWn1-14" value="include" style="html=1;verticalAlign=bottom;endArrow=open;dashed=1;endSize=8;curved=0;rounded=0;entryX=0;entryY=0.5;entryDx=0;entryDy=0;exitX=1;exitY=0.5;exitDx=0;exitDy=0;" parent="1" source="QLXV31pKg9tyfQpccWn1-3" target="QLXV31pKg9tyfQpccWn1-15" edge="1">
          <mxGeometry relative="1" as="geometry">
            <mxPoint x="414" y="201" as="sourcePoint" />
            <mxPoint x="483" y="190" as="targetPoint" />
          </mxGeometry>
        </mxCell>
        <mxCell id="QLXV31pKg9tyfQpccWn1-15" value="Добавить опыт работы" style="ellipse;whiteSpace=wrap;html=1;" parent="1" vertex="1">
          <mxGeometry x="530" y="70" width="100" height="50" as="geometry" />
        </mxCell>
        <mxCell id="QLXV31pKg9tyfQpccWn1-16" value="include" style="html=1;verticalAlign=bottom;endArrow=open;dashed=1;endSize=8;curved=0;rounded=0;entryX=0;entryY=0.5;entryDx=0;entryDy=0;" parent="1" source="QLXV31pKg9tyfQpccWn1-3" target="QLXV31pKg9tyfQpccWn1-17" edge="1">
          <mxGeometry relative="1" as="geometry">
            <mxPoint x="470" y="260" as="sourcePoint" />
            <mxPoint x="539" y="249" as="targetPoint" />
          </mxGeometry>
        </mxCell>
        <mxCell id="QLXV31pKg9tyfQpccWn1-17" value="Добавить описание" style="ellipse;whiteSpace=wrap;html=1;" parent="1" vertex="1">
          <mxGeometry x="550" y="130" width="100" height="50" as="geometry" />
        </mxCell>
        <mxCell id="QLXV31pKg9tyfQpccWn1-18" value="include" style="html=1;verticalAlign=bottom;endArrow=open;dashed=1;endSize=8;curved=0;rounded=0;entryX=0;entryY=0.5;entryDx=0;entryDy=0;exitX=0.99;exitY=0.645;exitDx=0;exitDy=0;exitPerimeter=0;" parent="1" source="QLXV31pKg9tyfQpccWn1-5" target="QLXV31pKg9tyfQpccWn1-19" edge="1">
          <mxGeometry relative="1" as="geometry">
            <mxPoint x="500" y="301" as="sourcePoint" />
            <mxPoint x="569" y="290" as="targetPoint" />
          </mxGeometry>
        </mxCell>
        <mxCell id="QLXV31pKg9tyfQpccWn1-19" value="Добавить цену&lt;span style=&quot;color: rgba(0, 0, 0, 0); font-family: monospace; font-size: 0px; text-align: start; text-wrap: nowrap;&quot;&gt;%3CmxGraphModel%3E%3Croot%3E%3CmxCell%20id%3D%220%22%2F%3E%3CmxCell%20id%3D%221%22%20parent%3D%220%22%2F%3E%3CmxCell%20id%3D%222%22%20value%3D%22include%22%20style%3D%22html%3D1%3BverticalAlign%3Dbottom%3BendArrow%3Dopen%3Bdashed%3D1%3BendSize%3D8%3Bcurved%3D0%3Brounded%3D0%3BentryX%3D0%3BentryY%3D0.5%3BentryDx%3D0%3BentryDy%3D0%3B%22%20edge%3D%221%22%20target%3D%223%22%20parent%3D%221%22%3E%3CmxGeometry%20relative%3D%221%22%20as%3D%22geometry%22%3E%3CmxPoint%20x%3D%22361%22%20y%3D%22151%22%20as%3D%22sourcePoint%22%2F%3E%3CmxPoint%20x%3D%22430%22%20y%3D%22140%22%20as%3D%22targetPoint%22%2F%3E%3C%2FmxGeometry%3E%3C%2FmxCell%3E%3CmxCell%20id%3D%223%22%20value%3D%22%D0%94%D0%BE%D0%B1%D0%B0%D0%B2%D0%B8%D1%82%D1%8C%20%D1%84%D0%BE%D1%82%D0%BE%22%20style%3D%22ellipse%3BwhiteSpace%3Dwrap%3Bhtml%3D1%3B%22%20vertex%3D%221%22%20parent%3D%221%22%3E%3CmxGeometry%20x%3D%22450%22%20y%3D%22100%22%20width%3D%22100%22%20height%3D%2250%22%20as%3D%22geometry%22%2F%3E%3C%2FmxCell%3E%3C%2Froot%3E%3C%2FmxGraphModel%3E&lt;/span&gt;" style="ellipse;whiteSpace=wrap;html=1;" parent="1" vertex="1">
          <mxGeometry x="590" y="190" width="100" height="50" as="geometry" />
        </mxCell>
        <mxCell id="QLXV31pKg9tyfQpccWn1-20" value="include" style="html=1;verticalAlign=bottom;endArrow=open;dashed=1;endSize=8;curved=0;rounded=0;entryX=0;entryY=0.5;entryDx=0;entryDy=0;exitX=0.933;exitY=0.782;exitDx=0;exitDy=0;exitPerimeter=0;" parent="1" source="QLXV31pKg9tyfQpccWn1-5" target="QLXV31pKg9tyfQpccWn1-21" edge="1">
          <mxGeometry relative="1" as="geometry">
            <mxPoint x="570" y="351" as="sourcePoint" />
            <mxPoint x="639" y="340" as="targetPoint" />
          </mxGeometry>
        </mxCell>
        <mxCell id="QLXV31pKg9tyfQpccWn1-21" value="Добавить описание процедуры" style="ellipse;whiteSpace=wrap;html=1;" parent="1" vertex="1">
          <mxGeometry x="610" y="240" width="100" height="50" as="geometry" />
        </mxCell>
        <mxCell id="QLXV31pKg9tyfQpccWn1-22" value="&amp;lt;&amp;lt;extend&amp;gt;&amp;gt;" style="html=1;verticalAlign=bottom;endArrow=open;dashed=1;endSize=8;curved=0;rounded=0;entryX=1;entryY=0.6;entryDx=0;entryDy=0;entryPerimeter=0;exitX=0;exitY=0.4;exitDx=0;exitDy=0;exitPerimeter=0;" parent="1" source="QLXV31pKg9tyfQpccWn1-23" target="QLXV31pKg9tyfQpccWn1-7" edge="1">
          <mxGeometry relative="1" as="geometry">
            <mxPoint x="490" y="361" as="sourcePoint" />
            <mxPoint x="559" y="350" as="targetPoint" />
          </mxGeometry>
        </mxCell>
        <mxCell id="QLXV31pKg9tyfQpccWn1-23" value="Удалить клиенат" style="ellipse;whiteSpace=wrap;html=1;" parent="1" vertex="1">
          <mxGeometry x="570" y="310" width="109" height="50" as="geometry" />
        </mxCell>
        <mxCell id="QLXV31pKg9tyfQpccWn1-24" value="Пользователь" style="shape=umlActor;verticalLabelPosition=bottom;verticalAlign=top;html=1;outlineConnect=0;" parent="1" vertex="1">
          <mxGeometry x="110" y="470" width="30" height="60" as="geometry" />
        </mxCell>
        <mxCell id="QLXV31pKg9tyfQpccWn1-25" value="" style="endArrow=classic;html=1;rounded=0;" parent="1" source="QLXV31pKg9tyfQpccWn1-24" target="QLXV31pKg9tyfQpccWn1-26" edge="1">
          <mxGeometry width="50" height="50" relative="1" as="geometry">
            <mxPoint x="250" y="480" as="sourcePoint" />
            <mxPoint x="330" y="550" as="targetPoint" />
          </mxGeometry>
        </mxCell>
        <mxCell id="QLXV31pKg9tyfQpccWn1-26" value="авторизоваться" style="ellipse;whiteSpace=wrap;html=1;" parent="1" vertex="1">
          <mxGeometry x="315" y="420" width="150" height="50" as="geometry" />
        </mxCell>
        <mxCell id="QLXV31pKg9tyfQpccWn1-27" value="" style="endArrow=classic;html=1;rounded=0;" parent="1" source="QLXV31pKg9tyfQpccWn1-24" target="QLXV31pKg9tyfQpccWn1-28" edge="1">
          <mxGeometry width="50" height="50" relative="1" as="geometry">
            <mxPoint x="260" y="495" as="sourcePoint" />
            <mxPoint x="340" y="565" as="targetPoint" />
          </mxGeometry>
        </mxCell>
        <mxCell id="QLXV31pKg9tyfQpccWn1-28" value="просмотреть процедуры" style="ellipse;whiteSpace=wrap;html=1;" parent="1" vertex="1">
          <mxGeometry x="410" y="470" width="150" height="50" as="geometry" />
        </mxCell>
        <mxCell id="QLXV31pKg9tyfQpccWn1-29" value="" style="endArrow=classic;html=1;rounded=0;" parent="1" source="QLXV31pKg9tyfQpccWn1-24" target="QLXV31pKg9tyfQpccWn1-30" edge="1">
          <mxGeometry width="50" height="50" relative="1" as="geometry">
            <mxPoint x="210.00000000000023" y="514.0006553911205" as="sourcePoint" />
            <mxPoint x="340" y="635.47" as="targetPoint" />
          </mxGeometry>
        </mxCell>
        <mxCell id="QLXV31pKg9tyfQpccWn1-30" value="просмотреть отзывы" style="ellipse;whiteSpace=wrap;html=1;" parent="1" vertex="1">
          <mxGeometry x="315" y="530" width="150" height="50" as="geometry" />
        </mxCell>
        <mxCell id="QLXV31pKg9tyfQpccWn1-31" value="&amp;lt;&amp;lt;extend&amp;gt;&amp;gt;" style="html=1;verticalAlign=bottom;endArrow=open;dashed=1;endSize=8;curved=0;rounded=0;entryX=0.962;entryY=0.763;entryDx=0;entryDy=0;exitX=0;exitY=0.4;exitDx=0;exitDy=0;exitPerimeter=0;entryPerimeter=0;" parent="1" source="QLXV31pKg9tyfQpccWn1-32" target="QLXV31pKg9tyfQpccWn1-30" edge="1">
          <mxGeometry relative="1" as="geometry">
            <mxPoint x="430.5" y="631" as="sourcePoint" />
            <mxPoint x="390.0000000000023" y="584.5" as="targetPoint" />
          </mxGeometry>
        </mxCell>
        <mxCell id="QLXV31pKg9tyfQpccWn1-32" value="оставить отзыв" style="ellipse;whiteSpace=wrap;html=1;" parent="1" vertex="1">
          <mxGeometry x="570" y="510" width="109" height="50" as="geometry" />
        </mxCell>
        <mxCell id="QLXV31pKg9tyfQpccWn1-33" value="просмотреть специалистов" style="ellipse;whiteSpace=wrap;html=1;" parent="1" vertex="1">
          <mxGeometry x="350" y="585" width="150" height="50" as="geometry" />
        </mxCell>
        <mxCell id="QLXV31pKg9tyfQpccWn1-34" value="&amp;lt;&amp;lt;extend&amp;gt;&amp;gt;" style="html=1;verticalAlign=bottom;endArrow=open;dashed=1;endSize=8;curved=0;rounded=0;entryX=0.962;entryY=0.763;entryDx=0;entryDy=0;exitX=0;exitY=0.4;exitDx=0;exitDy=0;exitPerimeter=0;entryPerimeter=0;" parent="1" source="QLXV31pKg9tyfQpccWn1-35" target="QLXV31pKg9tyfQpccWn1-33" edge="1">
          <mxGeometry relative="1" as="geometry">
            <mxPoint x="410.5" y="721.5" as="sourcePoint" />
            <mxPoint x="370.0000000000023" y="675" as="targetPoint" />
          </mxGeometry>
        </mxCell>
        <mxCell id="QLXV31pKg9tyfQpccWn1-35" value="записаться на прием" style="ellipse;whiteSpace=wrap;html=1;" parent="1" vertex="1">
          <mxGeometry x="560" y="580" width="109" height="50" as="geometry" />
        </mxCell>
        <mxCell id="QLXV31pKg9tyfQpccWn1-36" value="" style="endArrow=classic;html=1;rounded=0;entryX=0.04;entryY=0.264;entryDx=0;entryDy=0;entryPerimeter=0;" parent="1" source="QLXV31pKg9tyfQpccWn1-24" target="QLXV31pKg9tyfQpccWn1-33" edge="1">
          <mxGeometry width="50" height="50" relative="1" as="geometry">
            <mxPoint x="150" y="609.5" as="sourcePoint" />
            <mxPoint x="276" y="658.5" as="targetPoint" />
          </mxGeometry>
        </mxCell>
        <mxCell id="QLXV31pKg9tyfQpccWn1-37" value="" style="endArrow=classic;html=1;rounded=0;" parent="1" source="QLXV31pKg9tyfQpccWn1-24" target="QLXV31pKg9tyfQpccWn1-38" edge="1">
          <mxGeometry width="50" height="50" relative="1" as="geometry">
            <mxPoint x="170" y="630" as="sourcePoint" />
            <mxPoint x="410" y="810" as="targetPoint" />
          </mxGeometry>
        </mxCell>
        <mxCell id="QLXV31pKg9tyfQpccWn1-38" value="просмотреть историю посещений" style="ellipse;whiteSpace=wrap;html=1;" parent="1" vertex="1">
          <mxGeometry x="270" y="650" width="150" height="50" as="geometry" />
        </mxCell>
        <mxCell id="QLXV31pKg9tyfQpccWn1-39" value="Специалист" style="shape=umlActor;verticalLabelPosition=bottom;verticalAlign=top;html=1;outlineConnect=0;" parent="1" vertex="1">
          <mxGeometry x="120" y="770" width="30" height="60" as="geometry" />
        </mxCell>
        <mxCell id="QLXV31pKg9tyfQpccWn1-40" value="" style="endArrow=classic;html=1;rounded=0;" parent="1" target="QLXV31pKg9tyfQpccWn1-41" edge="1">
          <mxGeometry width="50" height="50" relative="1" as="geometry">
            <mxPoint x="160" y="797" as="sourcePoint" />
            <mxPoint x="350" y="850" as="targetPoint" />
          </mxGeometry>
        </mxCell>
        <mxCell id="QLXV31pKg9tyfQpccWn1-41" value="Просмотр информации о клиенте" style="ellipse;whiteSpace=wrap;html=1;" parent="1" vertex="1">
          <mxGeometry x="335" y="710" width="150" height="70" as="geometry" />
        </mxCell>
        <mxCell id="QLXV31pKg9tyfQpccWn1-42" value="&amp;lt;&amp;lt;extend&amp;gt;&amp;gt;" style="html=1;verticalAlign=bottom;endArrow=open;dashed=1;endSize=8;curved=0;rounded=0;entryX=0.681;entryY=0.012;entryDx=0;entryDy=0;entryPerimeter=0;exitX=0;exitY=0.4;exitDx=0;exitDy=0;exitPerimeter=0;" parent="1" source="QLXV31pKg9tyfQpccWn1-43" target="QLXV31pKg9tyfQpccWn1-11" edge="1">
          <mxGeometry relative="1" as="geometry">
            <mxPoint x="266.37" y="61" as="sourcePoint" />
            <mxPoint x="299.9999999999999" y="47.049999999999955" as="targetPoint" />
          </mxGeometry>
        </mxCell>
        <mxCell id="QLXV31pKg9tyfQpccWn1-43" value="Подтвердить запись" style="ellipse;whiteSpace=wrap;html=1;" parent="1" vertex="1">
          <mxGeometry x="346.37" y="10" width="109" height="50" as="geometry" />
        </mxCell>
        <mxCell id="QLXV31pKg9tyfQpccWn1-46" value="&amp;lt;&amp;lt;extend&amp;gt;&amp;gt;" style="html=1;verticalAlign=bottom;endArrow=open;dashed=1;endSize=8;curved=0;rounded=0;exitX=0;exitY=0.4;exitDx=0;exitDy=0;exitPerimeter=0;entryX=1;entryY=0.5;entryDx=0;entryDy=0;" parent="1" source="QLXV31pKg9tyfQpccWn1-47" target="QLXV31pKg9tyfQpccWn1-41" edge="1">
          <mxGeometry relative="1" as="geometry">
            <mxPoint x="455.85" y="761" as="sourcePoint" />
            <mxPoint x="370.00363045122833" y="754.6619140144996" as="targetPoint" />
          </mxGeometry>
        </mxCell>
        <mxCell id="QLXV31pKg9tyfQpccWn1-47" value="Связаться с клиентом" style="ellipse;whiteSpace=wrap;html=1;" parent="1" vertex="1">
          <mxGeometry x="560" y="710" width="109" height="50" as="geometry" />
        </mxCell>
        <mxCell id="QLXV31pKg9tyfQpccWn1-48" value="" style="endArrow=classic;html=1;rounded=0;" parent="1" source="QLXV31pKg9tyfQpccWn1-39" target="QLXV31pKg9tyfQpccWn1-49" edge="1">
          <mxGeometry width="50" height="50" relative="1" as="geometry">
            <mxPoint x="170" y="897" as="sourcePoint" />
            <mxPoint x="360" y="950" as="targetPoint" />
          </mxGeometry>
        </mxCell>
        <mxCell id="QLXV31pKg9tyfQpccWn1-49" value="Просмотр своего расписсания" style="ellipse;whiteSpace=wrap;html=1;" parent="1" vertex="1">
          <mxGeometry x="346.37" y="800" width="150" height="70" as="geometry" />
        </mxCell>
        <mxCell id="X0o6nN8L8Py7rt4GkkLD-7" value="&amp;lt;&amp;lt;extend&amp;gt;&amp;gt;" style="html=1;verticalAlign=bottom;endArrow=open;dashed=1;endSize=8;curved=0;rounded=0;entryX=1;entryY=0.5;entryDx=0;entryDy=0;exitX=0;exitY=0.4;exitDx=0;exitDy=0;exitPerimeter=0;" edge="1" parent="1" source="X0o6nN8L8Py7rt4GkkLD-8" target="QLXV31pKg9tyfQpccWn1-28">
          <mxGeometry relative="1" as="geometry">
            <mxPoint x="506.5" y="591.5" as="sourcePoint" />
            <mxPoint x="590" y="493" as="targetPoint" />
          </mxGeometry>
        </mxCell>
        <mxCell id="X0o6nN8L8Py7rt4GkkLD-8" value="записаться на процедуру" style="ellipse;whiteSpace=wrap;html=1;" vertex="1" parent="1">
          <mxGeometry x="656" y="450" width="109" height="50" as="geometry" />
        </mxCell>
      </root>
    </mxGraphModel>
  </diagram>
</mxfile>
